<svg width="61" height="65" viewBox="0 0 61 65" fill="none" xmlns="http://www.w3.org/2000/svg">
<path d="M29.04 64.9999C28.8544 64.9999 28.6812 64.9503 28.508 64.8635C28.1368 64.6651 27.9141 64.2806 27.9141 63.8713V54.3712C27.9141 51.2211 30.4753 48.6538 33.6181 48.6538H50.124C50.6189 48.6538 51.052 48.9763 51.2005 49.46C51.349 49.9312 51.1634 50.4521 50.7427 50.725L29.6587 64.8139C29.4731 64.9379 29.2627 64.9999 29.04 64.9999ZM33.6181 50.9234C31.7126 50.9234 30.166 52.4737 30.166 54.3836V61.7754L46.3997 50.9234H33.6181Z" fill="white"/>
<path d="M40.6708 14.2998H10.5791C9.96043 14.2998 9.45312 13.7913 9.45312 13.1712V8.28473C9.45312 7.66462 9.96043 7.15613 10.5791 7.15613H40.6708C41.2894 7.15613 41.7967 7.66462 41.7967 8.28473V13.1588C41.7967 13.7913 41.2894 14.2998 40.6708 14.2998ZM11.7051 12.0426H39.5448V9.41333H11.7051V12.0426Z" fill="white"/>
<path d="M30.1907 20.4141H21.0469C20.4282 20.4141 19.9209 19.9056 19.9209 19.2855C19.9209 18.6654 20.4282 18.1569 21.0469 18.1569H30.1907C30.8093 18.1569 31.3166 18.6654 31.3166 19.2855C31.3166 19.9056 30.8093 20.4141 30.1907 20.4141Z" fill="white"/>
<path d="M40.9306 26.5283H10.5791C9.96043 26.5283 9.45312 26.0198 9.45312 25.3997C9.45312 24.7796 9.96043 24.2711 10.5791 24.2711H40.943C41.5616 24.2711 42.0689 24.7796 42.0689 25.3997C42.0566 26.0198 41.5616 26.5283 40.9306 26.5283Z" fill="white"/>
<path d="M35.0038 32.655H10.5791C9.96043 32.655 9.45312 32.1465 9.45312 31.5264C9.45312 30.9063 9.96043 30.3978 10.5791 30.3978H35.0038C35.6225 30.3978 36.1298 30.9063 36.1298 31.5264C36.1298 32.1465 35.6225 32.655 35.0038 32.655Z" fill="white"/>
<path d="M28.6316 38.7693H10.5791C9.96043 38.7693 9.45312 38.2608 9.45312 37.6407C9.45312 37.0206 9.96043 36.5121 10.5791 36.5121H28.6316C29.2503 36.5121 29.7576 37.0206 29.7576 37.6407C29.7576 38.2608 29.2503 38.7693 28.6316 38.7693Z" fill="white"/>
<path d="M22.5316 44.8837H10.5791C9.96043 44.8837 9.45312 44.3752 9.45312 43.7551C9.45312 43.135 9.96043 42.6265 10.5791 42.6265H22.5316C23.1503 42.6265 23.6576 43.135 23.6576 43.7551C23.6576 44.3752 23.1503 44.8837 22.5316 44.8837Z" fill="white"/>
<path d="M24.1649 52.8706C23.8803 52.8706 23.5833 52.759 23.373 52.5358L18.6959 47.8477C18.2505 47.4013 18.2505 46.6943 18.6959 46.2479L49.7527 15.1183C50.1981 14.6718 50.9034 14.6718 51.3488 15.1183L56.0259 19.8063C56.4714 20.2528 56.4714 20.9597 56.0259 21.4062L45.3973 32.0597C44.9519 32.5062 44.2466 32.5062 43.8012 32.0597C43.3557 31.6132 43.3557 30.9063 43.8012 30.4598L53.6255 20.6125L50.5446 17.5243L21.0839 47.0664L24.1649 50.1546L39.2849 34.9991C39.7304 34.5526 40.4357 34.5526 40.8811 34.9991C41.3265 35.4455 41.3265 36.1525 40.8811 36.5989L24.9691 52.5482C24.7464 52.7714 24.4618 52.8706 24.1649 52.8706Z" fill="white"/>
<path d="M55.2215 21.7411C54.9245 21.7411 54.64 21.6171 54.4296 21.4062L49.7525 16.7182C49.3071 16.2717 49.3071 15.5648 49.7525 15.1183L52.7097 12.1542C53.1552 11.7077 53.8604 11.7077 54.3059 12.1542L58.983 16.8422C59.4284 17.2887 59.4284 17.9956 58.983 18.4421L56.0258 21.4062C55.8154 21.6295 55.5308 21.7411 55.2215 21.7411ZM52.1406 15.9369L55.2215 19.025L56.5826 17.6608L53.5016 14.5726L52.1406 15.9369Z" fill="white"/>
<path d="M57.6099 18.2065C57.3253 18.2065 57.0283 18.0949 56.818 17.8717L53.2916 14.337C52.8462 13.8905 52.8462 13.1836 53.2916 12.7371L54.9372 11.0876C55.593 10.4303 56.4715 10.0955 57.4366 10.1451C58.3522 10.1947 59.2307 10.5792 59.8989 11.2489C60.5671 11.9186 60.963 12.7992 61.0001 13.7169C61.0496 14.6719 60.7155 15.5648 60.0598 16.2222L58.4141 17.8717C58.1914 18.0949 57.8944 18.2065 57.6099 18.2065ZM55.6796 13.5433L57.6099 15.478L58.4636 14.6223C58.6616 14.4238 58.7606 14.1386 58.7482 13.8161C58.7358 13.4565 58.575 13.1092 58.3028 12.8364C58.0305 12.5635 57.6841 12.4023 57.3253 12.3899C57.0159 12.3651 56.7314 12.4767 56.521 12.6751L55.6796 13.5433Z" fill="white"/>
<path d="M17.3472 55.0287C17.0502 55.0287 16.7656 54.917 16.5553 54.6938C16.2583 54.3962 16.147 53.9621 16.2831 53.5528L18.4237 46.7192C18.5474 46.3471 18.8443 46.0495 19.2279 45.9626C19.6115 45.8634 20.0198 45.9875 20.292 46.2603L24.9691 50.9483C25.2537 51.2212 25.365 51.6305 25.266 52.0149C25.1671 52.3994 24.8825 52.7095 24.5113 52.8211L17.6936 54.9667C17.5699 55.0039 17.4585 55.0287 17.3472 55.0287ZM20.0074 49.1748L19.0671 52.1762L22.0614 51.2336L20.0074 49.1748Z" fill="white"/>
<path d="M29.04 65H5.70406C2.56126 65 0 62.4451 0 59.2825V57.0501C0 56.43 0.507302 55.9215 1.12596 55.9215C1.74462 55.9215 2.25193 56.43 2.25193 57.0501V59.2949C2.25193 61.2049 3.79858 62.7552 5.70406 62.7552H28.6935L48.9856 49.1995V25.7346C48.9856 25.1144 49.4929 24.606 50.1116 24.606C50.7302 24.606 51.2375 25.1144 51.2375 25.7346V49.7824C51.2375 50.1545 51.0519 50.5142 50.7302 50.725L29.6586 64.8139C29.473 64.938 29.2627 65 29.04 65Z" fill="white"/>
<path d="M1.12596 51.0723C0.507302 51.0723 0 50.5638 0 49.9437V5.71742C0 2.56726 2.56126 0 5.70406 0H45.5458C48.6886 0 51.2499 2.56726 51.2499 5.71742V10.7279C51.2499 11.348 50.7426 11.8565 50.1239 11.8565C49.5053 11.8565 48.998 11.348 48.998 10.7279V5.71742C48.998 3.80748 47.4513 2.2572 45.5458 2.2572H5.70406C3.79858 2.2572 2.25193 3.80748 2.25193 5.71742V49.9437C2.25193 50.5638 1.74462 51.0723 1.12596 51.0723Z" fill="white"/>
</svg>
