<svg width="78" height="61" viewBox="0 0 78 61" fill="none" xmlns="http://www.w3.org/2000/svg">
<path d="M19.1374 37.266C18.832 37.266 18.5328 37.1502 18.2974 36.9445L13.626 32.8046C13.0978 32.3353 13.0469 31.5253 13.5115 30.9917C13.976 30.4582 14.7779 30.4068 15.3062 30.876L19.0038 34.1546L26.2717 25.4825C26.7236 24.9425 27.5319 24.8718 28.0665 25.3347C28.601 25.7911 28.6711 26.6011 28.2128 27.1475L20.1112 36.8095C19.8884 37.0731 19.5766 37.2338 19.2329 37.2595C19.2011 37.266 19.1693 37.266 19.1374 37.266Z" fill="#DDDDDD"/>
<path d="M60.5497 27.4304H43.4682C42.7681 27.4304 42.1953 26.8518 42.1953 26.1447C42.1953 25.4376 42.7617 24.859 43.4682 24.859H60.5434C61.2434 24.859 61.8162 25.4376 61.8162 26.1447C61.8226 26.8518 61.2498 27.4304 60.5497 27.4304Z" fill="#DDDDDD"/>
<path d="M60.5497 49.8401H54.3637C53.6636 49.8401 53.0908 49.2615 53.0908 48.5544C53.0908 47.8472 53.6572 47.2687 54.3637 47.2687H60.5497C61.2498 47.2687 61.8225 47.8472 61.8225 48.5544C61.8225 49.2679 61.2498 49.8401 60.5497 49.8401Z" fill="#DDDDDD"/>
<path d="M60.3968 33.0747H45.7909C45.0908 33.0747 44.5181 32.4961 44.5181 31.789C44.5181 31.0819 45.0845 30.5033 45.7909 30.5033H60.3968C61.0969 30.5033 61.6697 31.0819 61.6697 31.789C61.6697 32.4961 61.1032 33.0747 60.3968 33.0747Z" fill="#DDDDDD"/>
<path d="M60.5497 38.6417H43.4682C42.7681 38.6417 42.1953 38.0632 42.1953 37.356C42.1953 36.6489 42.7617 36.0703 43.4682 36.0703H60.5434C61.2434 36.0703 61.8162 36.6489 61.8162 37.356C61.8226 38.0632 61.2498 38.6417 60.5497 38.6417Z" fill="#DDDDDD"/>
<path d="M67.2571 15.4798L56.6415 4.75066L52.3075 0.372853C52.0593 0.12857 51.7411 0 51.3974 0H22.1283C21.4219 0 20.8555 0.572136 20.8555 1.2857V13.7763C21.3328 13.7313 21.8165 13.7056 22.3065 13.7056C22.6693 13.7056 23.0384 13.712 23.4012 13.7506V2.5714H50.1373V16.5084C50.1373 17.2091 50.7037 17.7941 51.4101 17.7941H65.2078V58.435H23.4012V46.8637C23.0384 46.8959 22.6693 46.9087 22.3065 46.9087C21.8165 46.9087 21.3328 46.883 20.8555 46.838V59.7207C20.8555 60.4343 21.4219 61.0064 22.1283 61.0064H66.4743C67.1807 61.0064 67.7471 60.4343 67.7471 59.7207V16.6755C67.7662 16.6241 67.7662 16.5662 67.7662 16.5019C67.7662 16.0841 67.5689 15.7112 67.2571 15.4798ZM52.683 15.2227V4.38423L54.5223 6.24207L63.4067 15.2163H52.683V15.2227Z" fill="#DDDDDD"/>
<path d="M4.60157 50.7787C3.94606 50.7787 3.32873 50.5151 2.86414 50.0459L0.719394 47.873C-0.235241 46.9088 -0.235241 45.3338 0.719394 44.3695L8.3692 36.8417C7.75187 35.5368 6.88633 33.1904 6.88633 30.349C6.88633 22.5448 12.6841 16.142 20.3658 15.4541C21.2122 15.377 21.9568 15.3577 22.7269 15.4349C30.434 15.9556 36.5055 22.5062 36.5055 30.3554C36.5055 38.1982 30.4403 44.7552 22.6951 45.2759C21.995 45.3402 21.2122 45.3274 20.3658 45.2502C17.9601 45.0381 15.6244 44.2152 13.5879 42.8652L13.537 42.8524L6.32628 50.0587C5.86805 50.5216 5.25072 50.7787 4.60157 50.7787ZM2.58411 46.1245L4.60157 48.1687L13.3206 39.4517L14.2116 40.2038C14.307 40.2874 14.3579 40.3324 14.3961 40.3581C14.4152 40.3646 14.4852 40.4031 14.6189 40.4803L14.6507 40.4867L14.848 40.6217C16.5663 41.7917 18.552 42.5052 20.5949 42.6852C21.2186 42.7431 21.8614 42.7688 22.4978 42.7045C28.9384 42.2738 33.9598 36.8417 33.9598 30.3425C33.9598 23.8433 28.9384 18.4177 22.5296 17.987C21.8104 17.9227 21.2122 17.9484 20.5949 18.0062C14.2307 18.572 9.43202 23.8755 9.43202 30.3425C9.43202 32.9718 10.3294 35.0996 10.864 36.1282C10.9149 36.231 10.9849 36.3596 11.0167 36.4046L11.5386 37.2789L10.8194 38.0182L2.58411 46.1245Z" fill="#DDDDDD"/>
<path d="M71.8714 55.9279H70.2612C69.5612 55.9279 68.9884 55.3494 68.9884 54.6422C68.9884 53.9351 69.5548 53.3565 70.2612 53.3565H70.5985V6.03636H60.473C59.773 6.03636 59.2002 5.4578 59.2002 4.75067C59.2002 4.04353 59.7666 3.46497 60.473 3.46497H71.8714C72.5714 3.46497 73.1442 4.04353 73.1442 4.75067V54.6422C73.1442 55.3558 72.5714 55.9279 71.8714 55.9279Z" fill="#DDDDDD"/>
<path d="M76.7277 51.0165H75.4612C74.7612 51.0165 74.1884 50.438 74.1884 49.7308C74.1884 49.0237 74.7548 48.4516 75.4548 48.4451V11.7834H75.3148C74.6148 11.7834 74.042 11.2049 74.042 10.4977C74.042 9.7906 74.6084 9.21204 75.3148 9.21204H76.7277C77.4278 9.21204 78.0005 9.7906 78.0005 10.4977V49.7244C78.0005 50.438 77.4278 51.0165 76.7277 51.0165Z" fill="#DDDDDD"/>
</svg>
