<svg width="63" height="58" viewBox="0 0 63 58" fill="none" xmlns="http://www.w3.org/2000/svg">
<path d="M57.6422 4.96673C57.484 4.88152 57.3138 4.82674 57.1252 4.81457V1.21734C57.1252 0.547801 56.584 0 55.9089 0H50.3746C49.7056 0 49.1582 0.547801 49.1582 1.21734V4.81457C48.5197 4.85109 48.0149 5.37454 48.0149 6.02582V48.6022C48.0149 49.2169 48.4771 49.7282 49.0731 49.8073C50.1313 51.7977 51.5301 54.4271 51.9315 55.2062V56.7887C51.9315 57.4583 52.4728 58.0061 53.1478 58.0061C53.8168 58.0061 54.3642 57.4583 54.3642 56.7887V55.2062C54.7655 54.4332 56.1704 51.7977 57.2286 49.8134C57.8185 49.7343 58.2747 49.223 58.2747 48.6082V7.66313C59.7221 8.24745 60.5735 9.42827 60.5735 11.0412V24.2189C60.5735 24.8884 61.1148 25.4362 61.7899 25.4362C62.4589 25.4362 63.0062 24.8884 63.0062 24.2189V11.0412C63.0001 7.89443 60.8655 5.56323 57.6422 4.96673ZM50.4415 7.24315H55.8359V31.5777H50.4415V7.24315ZM54.6926 2.43467V4.80848H51.5848V2.43467H54.6926ZM55.4163 48.0239C54.3824 49.9595 53.6526 51.3229 53.1417 52.2846C52.6309 51.3168 51.9072 49.9534 50.8794 48.0239C50.776 47.8291 50.6239 47.6709 50.4476 47.5613V34.0063H55.842V47.5674C55.6656 47.677 55.5136 47.8352 55.4163 48.0239Z" fill="#DDDDDD"/>
<path d="M28.5535 22.2346H12.2364C11.5674 22.2346 11.02 21.6868 11.02 21.0173C11.02 20.3477 11.5613 19.7999 12.2364 19.7999H28.5535C29.2225 19.7999 29.7698 20.3477 29.7698 21.0173C29.7698 21.6929 29.2285 22.2346 28.5535 22.2346Z" fill="#DDDDDD"/>
<path d="M18.1416 16.6958H12.2302C11.5613 16.6958 11.0139 16.148 11.0139 15.4784C11.0139 14.8089 11.5552 14.2611 12.2302 14.2611H18.1416C18.8106 14.2611 19.358 14.8089 19.358 15.4784C19.358 16.148 18.8167 16.6958 18.1416 16.6958Z" fill="#DDDDDD"/>
<path d="M18.1416 43.4588H12.2302C11.5613 43.4588 11.0139 42.911 11.0139 42.2415C11.0139 41.572 11.5552 41.0242 12.2302 41.0242H18.1416C18.8106 41.0242 19.358 41.572 19.358 42.2415C19.358 42.911 18.8167 43.4588 18.1416 43.4588Z" fill="#DDDDDD"/>
<path d="M26.1999 27.5787H12.2364C11.5674 27.5787 11.02 27.0309 11.02 26.3614C11.02 25.6918 11.5613 25.144 12.2364 25.144H26.1999C26.8688 25.144 27.4162 25.6918 27.4162 26.3614C27.4101 27.037 26.8688 27.5787 26.1999 27.5787Z" fill="#DDDDDD"/>
<path d="M28.5535 32.8498H12.2364C11.5674 32.8498 11.02 32.302 11.02 31.6325C11.02 30.963 11.5613 30.4152 12.2364 30.4152H28.5535C29.2225 30.4152 29.7698 30.963 29.7698 31.6325C29.7698 32.3081 29.2285 32.8498 28.5535 32.8498Z" fill="#DDDDDD"/>
<path d="M44.828 15.7462C44.828 15.3506 44.6394 14.9976 44.3475 14.7784L30.0556 0.474732C29.9765 0.401692 29.8914 0.340825 29.8002 0.286045C29.7758 0.273871 29.7515 0.261698 29.7272 0.249524C29.636 0.206918 29.5387 0.164311 29.4414 0.146051C29.4353 0.146051 29.4292 0.146051 29.4292 0.146051C29.3501 0.127791 29.2711 0.121704 29.192 0.121704H1.21633C0.54735 0.121704 0 0.669506 0 1.33904V56.6609C0 57.3304 0.541268 57.8782 1.21633 57.8782H43.5934C44.2624 57.8782 44.8097 57.3304 44.8097 56.6609V15.9106C44.8158 15.8558 44.828 15.801 44.828 15.7462ZM40.662 14.5289H30.4083V4.27282L30.457 4.32152L40.662 14.5289ZM2.43267 55.4436V2.55029H27.9818V15.7462C27.9818 16.4158 28.523 16.9636 29.1981 16.9636H42.3831V55.4436H2.43267Z" fill="#DDDDDD"/>
</svg>
