<svg width="83" height="52" viewBox="0 0 83 52" fill="none" xmlns="http://www.w3.org/2000/svg">
<path d="M70.8026 40.7094H12.1958C11.509 40.7094 10.9517 40.1459 10.9517 39.4516V1.25786C10.9517 0.563522 11.509 0 12.1958 0H70.8026C71.4893 0 72.0467 0.563522 72.0467 1.25786V19.7199C72.0467 20.4143 71.4893 20.9778 70.8026 20.9778C70.1158 20.9778 69.5584 20.4143 69.5584 19.7199V2.51572H13.4399V38.1937H70.8026C71.4893 38.1937 72.0467 38.7572 72.0467 39.4516C72.0467 40.1459 71.4893 40.7094 70.8026 40.7094Z" fill="#DDDDDD"/>
<path d="M80.3641 52H2.63426C1.47141 52 0.489377 51.2771 0.131068 50.1568C-0.220606 49.0532 0.14268 47.9044 1.0567 47.2134L11.3979 38.4838C11.6218 38.2943 11.9038 38.192 12.1958 38.192H70.8026C71.0945 38.192 71.3766 38.296 71.6005 38.4838L81.9417 47.2134C82.8557 47.9044 83.219 49.0532 82.8673 50.1568C82.5107 51.2771 81.527 52 80.3641 52ZM12.647 40.7094L2.62264 49.1723C2.59942 49.1924 2.5762 49.2109 2.55131 49.2276C2.51648 49.2528 2.46837 49.288 2.49989 49.387C2.53141 49.4859 2.59113 49.4859 2.63426 49.4859H80.3641C80.4073 49.4859 80.467 49.4859 80.4985 49.387C80.53 49.288 80.4819 49.2528 80.4471 49.2276C80.4222 49.2092 80.399 49.1924 80.3758 49.1723L70.3514 40.7094H12.647Z" fill="#DDDDDD"/>
<path d="M71.1775 47.6612H11.373C10.6863 47.6612 10.1289 47.0977 10.1289 46.4034C10.1289 45.709 10.6863 45.1455 11.373 45.1455H71.1775C71.8642 45.1455 72.4216 45.709 72.4216 46.4034C72.4216 47.0994 71.8642 47.6612 71.1775 47.6612Z" fill="#DDDDDD"/>
<path d="M67.2227 36.2935C66.9042 36.2935 66.5858 36.171 66.3436 35.9245L58.9004 28.3991L57.001 30.3195C56.6626 30.6616 56.1616 30.7773 55.7104 30.618C55.2592 30.4587 54.939 30.0528 54.8843 29.5731L53.5357 17.6285C53.4925 17.2478 53.6236 16.8671 53.8923 16.597C54.161 16.3253 54.5343 16.1945 54.9142 16.2365L66.7284 17.6C67.2028 17.6553 67.6043 17.979 67.7619 18.4352C67.9195 18.8914 67.805 19.3979 67.4666 19.7383L65.5672 21.6587L73.0104 29.184C73.4965 29.6754 73.4965 30.4721 73.0104 30.9635C72.5244 31.4549 71.7364 31.4549 71.2504 30.9635L62.928 22.5492C62.6941 22.3128 62.5631 21.9941 62.5631 21.6604C62.5631 21.3266 62.6941 21.0063 62.928 20.7715L63.8835 19.8054L56.1865 18.9165L57.0657 26.6985L58.0212 25.7325C58.5072 25.2411 59.2952 25.2411 59.7812 25.7325L68.1036 34.1467C68.5896 34.6381 68.5896 35.4348 68.1036 35.9262C67.8597 36.171 67.5412 36.2935 67.2227 36.2935Z" fill="#DDDDDD"/>
<path d="M27.2696 18.4218H18.7532C18.0664 18.4218 17.509 17.8582 17.509 17.1639V8.5551C17.509 7.86076 18.0664 7.29724 18.7532 7.29724H27.2696C27.9564 7.29724 28.5138 7.86076 28.5138 8.5551C28.5138 9.24944 27.9564 9.81296 27.2696 9.81296H19.9973V15.9077H26.0255V14.1367C26.0255 13.4423 26.5829 12.8788 27.2696 12.8788C27.9564 12.8788 28.5138 13.4423 28.5138 14.1367V17.1656C28.5138 17.8582 27.9564 18.4218 27.2696 18.4218Z" fill="#DDDDDD"/>
<path d="M23.5871 14.4721C23.2586 14.4721 22.9418 14.3396 22.7079 14.1032L21.6048 12.9879C21.1187 12.4965 21.1187 11.6998 21.6048 11.2084C22.0908 10.717 22.8788 10.717 23.3648 11.2084L23.4992 11.3442L27.3045 6.66165C27.7408 6.12496 28.5254 6.04781 29.0563 6.4889C29.5871 6.92999 29.6634 7.72328 29.2271 8.25997L24.5509 14.0143C24.3286 14.2876 24.0018 14.4554 23.6501 14.4721C23.6269 14.4721 23.607 14.4721 23.5871 14.4721Z" fill="#DDDDDD"/>
<path d="M27.2696 34.6969H18.7532C18.0664 34.6969 17.509 34.1334 17.509 33.439V24.8285C17.509 24.1342 18.0664 23.5707 18.7532 23.5707H27.2696C27.9564 23.5707 28.5138 24.1342 28.5138 24.8285C28.5138 25.5229 27.9564 26.0864 27.2696 26.0864H19.9973V32.1812H26.0255V30.4101C26.0255 29.7158 26.5829 29.1522 27.2696 29.1522C27.9564 29.1522 28.5138 29.7158 28.5138 30.4101V33.439C28.5138 34.135 27.9564 34.6969 27.2696 34.6969Z" fill="#DDDDDD"/>
<path d="M23.5871 30.7472C23.2586 30.7472 22.9418 30.6147 22.7079 30.3782L21.6048 29.2629C21.1187 28.7715 21.1187 27.9748 21.6048 27.4834C22.0908 26.992 22.8788 26.992 23.3648 27.4834L23.4992 27.6193L27.3045 22.9367C27.7408 22.4 28.5254 22.3228 29.0563 22.7639C29.5871 23.205 29.6634 23.9983 29.2271 24.535L24.5509 30.2876C24.3286 30.561 24.0018 30.7287 23.6501 30.7455C23.6269 30.7472 23.607 30.7472 23.5871 30.7472Z" fill="#DDDDDD"/>
<path d="M64.1141 9.81297H35.3913C34.7046 9.81297 34.1472 9.24944 34.1472 8.5551C34.1472 7.86076 34.7046 7.29724 35.3913 7.29724H64.1141C64.8009 7.29724 65.3583 7.86076 65.3583 8.5551C65.3583 9.24944 64.8009 9.81297 64.1141 9.81297Z" fill=":#DDDDDD"/>
<path d="M47.7796 15.9731H35.3913C34.7046 15.9731 34.1472 15.4096 34.1472 14.7153C34.1472 14.0209 34.7046 13.4574 35.3913 13.4574H47.7796C48.4663 13.4574 49.0237 14.0209 49.0237 14.7153C49.0237 15.4113 48.4663 15.9731 47.7796 15.9731Z" fill="#DDDDDD"/>
<path d="M49.1498 26.088H35.3913C34.7046 26.088 34.1472 25.5245 34.1472 24.8301C34.1472 24.1358 34.7046 23.5723 35.3913 23.5723H49.1498C49.8365 23.5723 50.3939 24.1358 50.3939 24.8301C50.3939 25.5245 49.8365 26.088 49.1498 26.088Z" fill="#DDDDDD"/>
<path d="M42.803 32.2499H35.3913C34.7046 32.2499 34.1472 31.6863 34.1472 30.992C34.1472 30.2977 34.7046 29.7341 35.3913 29.7341H42.803C43.4898 29.7341 44.0472 30.2977 44.0472 30.992C44.0472 31.6863 43.4898 32.2499 42.803 32.2499Z" fill="#DDDDDD"/>
</svg>
